<svg width="132.202" height="91.426" viewBox="0 0 132.202 91.426" xmlns="http://www.w3.org/2000/svg"><g id="svgGroup" stroke-linecap="round" fill-rule="evenodd" font-size="9pt" stroke="#000000" stroke-width="0.25mm" fill="none" style="stroke:#000000;stroke-width:0.25mm;fill:none"><path d="M 127.101 27.425 L 127.501 27.425 Q 128.301 27.425 128.901 27.775 Q 129.501 28.125 129.401 28.625 Q 128.601 35.225 127.001 41.925 Q 125.401 48.625 122.901 55.625 Q 124.501 55.425 126.201 55.425 Q 127.701 55.425 127.701 56.025 Q 127.701 56.725 126.501 56.725 Q 124.501 56.725 122.401 57.025 Q 119.501 65.525 116.101 71.825 Q 111.301 80.925 103.801 86.425 Q 97.001 91.425 91.901 91.425 Q 87.401 91.425 87.401 87.325 Q 87.401 84.325 90.301 79.425 Q 84.901 78.825 81.501 74.525 Q 77.701 69.825 77.701 62.125 Q 77.701 60.725 77.851 59.125 Q 78.001 57.525 78.201 55.825 Q 75.101 51.825 75.101 44.425 Q 75.101 38.025 79.101 31.025 Q 72.901 26.925 72.901 20.025 Q 72.901 13.525 77.901 8.225 Q 82.801 3.025 89.901 2.825 Q 91.201 2.825 91.201 3.625 Q 91.201 4.125 90.501 4.125 Q 84.201 4.125 79.601 9.025 Q 75.001 13.725 75.001 19.625 Q 75.001 25.525 80.401 28.925 Q 82.701 25.225 85.851 21.925 Q 89.001 18.625 92.801 15.525 Q 100.601 9.425 109.301 6.225 Q 115.001 4.225 120.101 4.225 Q 125.501 4.225 128.851 6.325 Q 132.201 8.425 132.201 12.025 Q 132.201 17.525 124.401 24.225 Q 119.101 28.825 111.201 31.825 Q 102.801 35.025 95.701 35.025 Q 91.101 35.025 87.701 34.325 Q 83.001 42.425 80.601 50.425 Q 83.001 57.725 91.201 57.725 Q 98.301 57.725 106.701 51.425 Q 104.001 45.425 98.001 45.425 Q 96.601 45.425 95.301 45.725 Q 94.601 45.825 93.101 47.325 Q 91.601 48.825 91.601 50.225 Q 91.601 50.825 91.201 50.825 Q 90.801 50.925 90.801 50.325 Q 90.801 48.725 92.501 46.725 Q 94.001 45.125 95.201 44.925 Q 96.701 44.525 98.301 44.525 Q 104.701 44.525 107.801 50.625 Q 118.301 42.425 125.501 28.425 Q 126.601 26.425 127.101 27.425 Z M 25.201 76.125 Q 18.301 76.125 15.001 69.325 Q 12.801 64.725 12.801 58.625 Q 12.801 56.325 13.101 53.875 Q 13.401 51.425 13.901 48.625 Q 15.201 42.425 19.201 31.825 Q 14.701 33.025 11.301 33.025 Q 5.901 33.025 2.951 30.525 Q 0.001 28.025 0.001 24.325 Q 0.001 16.625 9.801 11.625 Q 17.401 7.925 29.901 7.125 Q 31.601 3.025 32.101 0.225 Q 32.101 -0.075 32.401 0.025 Q 32.601 0.125 32.801 0.625 Q 33.001 2.825 31.101 7.125 Q 33.701 6.925 36.301 7.125 Q 39.701 2.325 43.301 2.325 Q 45.901 2.325 48.501 4.025 Q 50.801 5.725 50.801 6.625 Q 50.801 7.025 50.301 7.025 Q 50.001 7.025 49.601 6.425 Q 49.201 5.825 48.601 5.425 Q 46.601 4.025 45.001 4.025 Q 42.501 4.025 40.001 7.325 Q 56.001 8.625 65.001 16.325 Q 72.701 22.925 72.701 32.025 Q 72.701 43.825 60.701 54.225 Q 54.201 59.825 43.801 61.825 Q 40.301 68.725 35.301 72.425 Q 30.301 76.125 25.201 76.125 Z M 95.301 32.225 Q 92.001 32.225 89.201 31.825 Q 95.601 21.825 103.801 15.925 Q 112.901 9.325 122.501 9.325 Q 122.901 9.325 122.901 8.925 Q 122.901 8.525 122.501 8.525 Q 112.401 8.525 102.901 15.325 Q 94.401 21.425 88.001 31.625 Q 85.501 31.225 83.401 30.425 Q 87.501 23.125 94.501 17.025 Q 101.901 10.725 109.801 7.625 Q 115.001 5.625 119.601 5.625 Q 124.201 5.625 127.001 7.425 Q 129.801 9.225 129.801 12.225 Q 129.801 17.525 121.301 23.625 Q 109.101 32.225 95.301 32.225 Z M 45.501 58.125 Q 48.501 50.525 48.501 42.225 Q 48.501 29.525 42.001 21.325 Q 45.901 18.525 49.101 15.225 Q 49.501 14.825 49.501 14.225 Q 49.501 13.925 49.401 13.925 Q 49.201 13.925 48.901 14.225 Q 43.801 18.725 41.201 20.325 Q 38.501 17.325 35.301 15.725 Q 37.401 11.125 39.301 8.425 Q 52.601 9.525 60.501 16.025 Q 68.501 22.625 68.501 31.725 Q 68.501 41.725 58.601 50.825 Q 53.101 55.925 45.501 58.125 Z M 22.901 30.725 Q 23.501 30.625 24.101 30.375 Q 24.701 30.125 25.301 29.925 Q 18.701 48.525 17.801 59.025 Q 17.701 60.025 18.801 61.075 Q 19.901 62.125 20.701 62.125 Q 20.901 62.125 21.101 61.925 Q 22.801 59.125 24.101 57.075 Q 25.401 55.025 26.401 53.725 Q 26.001 54.825 26.001 56.025 Q 26.001 62.425 37.301 62.425 Q 39.501 62.425 42.101 62.125 Q 38.901 67.925 34.451 71.175 Q 30.001 74.425 25.501 74.425 Q 20.501 74.425 17.701 70.525 Q 14.401 66.325 14.401 58.425 Q 14.401 54.225 15.501 48.725 Q 16.801 41.825 20.601 31.525 L 22.901 30.725 Z M 36.101 59.625 Q 27.101 59.625 27.101 55.025 Q 27.101 52.025 31.601 48.125 Q 31.801 47.925 31.801 47.825 Q 31.801 47.525 31.301 47.525 Q 30.401 47.525 29.101 48.525 Q 27.201 50.025 25.701 52.525 Q 21.901 58.725 21.701 58.925 Q 22.701 49.225 30.301 27.925 Q 36.201 25.325 40.801 22.125 Q 46.901 29.825 46.901 42.325 Q 46.901 50.825 43.701 58.625 Q 39.801 59.625 36.101 59.625 Z M 25.501 13.325 Q 22.401 13.325 19.751 14.175 Q 17.101 15.025 15.101 16.925 Q 11.401 20.225 11.401 24.125 Q 11.401 24.825 11.601 25.325 Q 11.701 25.925 12.101 25.825 Q 12.501 25.725 12.401 25.325 Q 12.301 25.025 12.301 24.225 Q 12.301 20.725 15.801 17.525 Q 20.001 13.725 25.501 14.125 Q 26.301 14.125 26.701 14.225 Q 25.001 17.825 23.401 21.575 Q 21.801 25.325 20.201 29.225 Q 13.601 30.925 9.801 30.925 Q 1.901 30.925 1.901 25.625 Q 1.901 22.725 4.401 19.425 Q 6.901 16.125 11.101 13.625 Q 18.101 9.525 29.401 8.425 Q 29.001 9.425 28.401 10.525 Q 27.801 11.625 27.301 12.925 L 27.101 13.425 Q 26.701 13.325 26.301 13.325 L 25.501 13.325 Z M 90.801 78.625 Q 85.601 78.325 82.301 74.225 Q 78.701 69.925 78.701 62.125 Q 78.701 59.625 79.101 56.825 Q 82.601 60.325 88.701 60.325 Q 97.101 60.325 107.101 52.525 Q 108.101 55.425 108.101 58.925 L 108.101 59.975 Q 108.101 60.525 108.001 61.025 Q 102.901 64.225 98.601 68.575 Q 94.301 72.925 90.801 78.625 Z M 109.301 62.125 Q 113.601 59.425 118.101 58.025 Q 115.301 66.725 112.401 72.525 Q 108.601 80.225 102.401 85.525 Q 96.801 90.425 92.901 90.425 Q 90.201 90.425 90.201 87.525 Q 90.201 84.725 93.101 79.425 Q 98.701 78.925 103.101 74.725 Q 105.501 72.425 107.001 69.375 Q 108.501 66.325 109.201 62.625 L 109.301 62.125 Z M 109.501 60.025 Q 113.801 57.625 118.701 56.325 Q 120.501 50.525 122.051 44.575 Q 123.601 38.625 124.901 32.325 Q 117.801 43.925 108.301 51.625 Q 109.801 55.425 109.501 60.025 Z M 107.601 63.625 Q 106.301 69.825 102.101 74.025 Q 98.301 77.825 93.601 78.525 Q 99.101 69.125 107.601 63.225 L 107.601 63.625 Z M 21.501 28.825 Q 24.501 20.925 27.701 14.325 Q 29.701 14.625 31.501 15.325 Q 28.901 20.525 26.301 27.325 L 21.501 28.825 Z M 80.001 48.525 Q 79.601 46.325 79.601 43.525 Q 79.601 38.525 82.201 32.725 Q 83.201 33.125 84.301 33.475 Q 85.401 33.825 86.501 34.025 Q 82.401 41.125 80.001 48.525 Z M 31.301 25.425 Q 32.201 23.025 33.101 20.875 Q 34.001 18.725 34.801 16.825 Q 37.701 18.525 40.001 21.125 Q 38.001 22.225 35.851 23.325 Q 33.701 24.425 31.301 25.425 Z M 35.501 8.225 Q 34.701 9.525 33.801 11.025 Q 32.901 12.525 31.901 14.325 Q 29.901 13.625 28.101 13.525 Q 30.101 9.325 30.501 8.325 Q 31.801 8.225 33.001 8.225 L 35.501 8.225 Z" vector-effect="non-scaling-stroke"/></g></svg>